<svg width="24" height="25" fill="none" xmlns="http://www.w3.org/2000/svg"><path d="m8.5 16.436-3-14H2" stroke="#ffffff" stroke-width="1.5" stroke-linejoin="round"/><path d="M9.5 16.436v.75-.75zm12.5-9.5h.75a.75.75 0 0 0-.75-.75v.75zm-15.5 12.5h-.75v.75h.75v-.75zM22 6.186H6.5v1.5H22v-1.5zm-6.237 11c2.517 0 4.318-1.147 5.447-3.056 1.097-1.855 1.54-4.386 1.54-7.194h-1.5c0 2.692-.432 4.91-1.331 6.43-.867 1.467-2.185 2.32-4.156 2.32v1.5zm-9.263 3h11v-1.5h-11v1.5zm3-3.75v-.75H9.478a1.775 1.775 0 0 0-.161.008 4.438 4.438 0 0 0-1.653.446c-.464.232-.951.592-1.32 1.146-.373.558-.595 1.269-.595 2.15h1.5c0-.619.153-1.033.343-1.318.193-.29.456-.493.742-.636a2.938 2.938 0 0 1 1.168-.296c.001 0 .001 0 0 0H9.5l-.001-.75zm0 .75h3.132v-1.5H9.5v1.5zm3.132 0h3.131v-1.5h-3.131v1.5z" fill="#ffffff"/><circle cx="10.5" cy="20.936" r="1.5" stroke="#ffffff" stroke-width="1.5"/><circle cx="17.5" cy="20.936" r="1.5" stroke="#ffffff" stroke-width="1.5"/></svg>