<svg width="34" height="14" fill="none" xmlns="http://www.w3.org/2000/svg"><path fill-rule="evenodd" clip-rule="evenodd" d="M15.727 10.906V6.993h2.049c.84 0 1.548-.277 2.126-.824l.139-.139a2.788 2.788 0 0 0-.139-3.943 2.948 2.948 0 0 0-2.126-.84h-3.29v9.66h1.24zm0-5.1V2.434h2.08c.447 0 .87.17 1.187.478.67.647.686 1.725.038 2.395a1.622 1.622 0 0 1-1.225.5h-2.08zm10.1-.993c-.532-.485-1.257-.731-2.173-.731-1.179 0-2.065.431-2.65 1.286l1.093.685c.401-.585.948-.878 1.641-.878.44 0 .863.162 1.195.455.323.277.508.678.508 1.101v.285c-.478-.262-1.079-.4-1.818-.4-.863 0-1.556.2-2.072.608-.517.408-.778.948-.778 1.633a2.043 2.043 0 0 0 .731 1.618c.486.431 1.102.647 1.826.647.855 0 1.533-.378 2.05-1.133h.053v.917h1.187V6.831c0-.855-.262-1.532-.794-2.018zM22.46 9.69a1 1 0 0 1-.409-.809c0-.362.17-.662.501-.9.34-.24.763-.363 1.264-.363.693-.008 1.233.146 1.618.455 0 .523-.208.978-.617 1.363-.37.37-.87.578-1.394.578a1.516 1.516 0 0 1-.963-.324zm6.825 4.12 4.145-9.512h-1.348l-1.918 4.745h-.024l-1.964-4.745h-1.348l2.72 6.185-1.541 3.328h1.278z" fill="#fff"/><path d="M11.444 6.146c0-.377-.03-.755-.092-1.125h-5.23v2.134h2.996a2.568 2.568 0 0 1-1.11 1.687v1.386h1.788c1.048-.963 1.648-2.388 1.648-4.082z" fill="#6D96FF"/><path d="M6.121 11.569c1.495 0 2.758-.493 3.675-1.34L8.01 8.841c-.5.339-1.14.531-1.888.531-1.448 0-2.673-.978-3.112-2.287H1.168v1.432a5.54 5.54 0 0 0 4.953 3.05z" fill="#34A853"/><path d="M3.009 7.086a3.345 3.345 0 0 1 0-2.126V3.535H1.167a5.497 5.497 0 0 0 0 4.976L3.01 7.086z" fill="#F90"/><path d="M6.121 2.672a2.985 2.985 0 0 1 2.127.832l1.587-1.587A5.355 5.355 0 0 0 6.12.477a5.548 5.548 0 0 0-4.953 3.058l1.841 1.432c.44-1.317 1.664-2.295 3.112-2.295z" fill="#EA4335"/></svg>