<svg width="31" height="19" fill="none" xmlns="http://www.w3.org/2000/svg"><path fill-rule="evenodd" clip-rule="evenodd" d="M15.242 16.641a9.284 9.284 0 0 1-5.95 2.134c-5.068 0-9.175-4-9.175-8.933C.117 4.908 4.224.909 9.291.909c2.27 0 4.349.803 5.95 2.134A9.284 9.284 0 0 1 21.193.909c5.067 0 9.174 4 9.174 8.933 0 4.934-4.107 8.933-9.174 8.933a9.285 9.285 0 0 1-5.95-2.134z" fill="#E4253C"/><path fill-rule="evenodd" clip-rule="evenodd" d="M15.242 16.641c1.973-1.638 3.224-4.076 3.224-6.799 0-2.723-1.251-5.16-3.224-6.8A9.284 9.284 0 0 1 21.192.91c5.067 0 9.175 4 9.175 8.933 0 4.934-4.108 8.933-9.174 8.933a9.284 9.284 0 0 1-5.95-2.134z" fill="#F90"/><path fill-rule="evenodd" clip-rule="evenodd" d="M15.243 16.641c1.972-1.638 3.223-4.076 3.223-6.799 0-2.723-1.25-5.16-3.223-6.8-1.973 1.64-3.223 4.077-3.223 6.8s1.25 5.16 3.223 6.8z" fill="#FF5E00"/></svg>