<svg width="30" height="20" fill="none" xmlns="http://www.w3.org/2000/svg"><path d="M6.23.87h7.25c1.012 0 1.641.836 1.405 1.866l-3.375 14.7c-.238 1.027-1.251 1.865-2.264 1.865H1.998c-1.01 0-1.642-.838-1.406-1.864l3.377-14.7C4.205 1.706 5.218.87 6.231.87z" fill="#E4253C"/><path d="M12.877.869h8.336c1.012 0 .556.837.318 1.867l-3.375 14.7c-.236 1.026-.162 1.864-1.176 1.864H8.643c-1.014 0-1.641-.838-1.403-1.864l3.374-14.7c.24-1.03 1.25-1.867 2.263-1.867z" fill="#00447C"/><path d="M20.882.869h7.25c1.013 0 1.642.837 1.404 1.867l-3.374 14.7c-.238 1.026-1.252 1.864-2.265 1.864H16.65c-1.014 0-1.643-.838-1.405-1.864l3.374-14.7c.237-1.03 1.248-1.867 2.262-1.867z" fill="#007B84"/><path d="M8.123 5.58c-.746.007-.966 0-1.036-.017-.027.13-.53 2.484-.532 2.486-.108.477-.187.816-.455 1.035a.803.803 0 0 1-.535.19c-.33 0-.523-.167-.555-.483l-.006-.108.1-.642s.528-2.145.623-2.429a.209.209 0 0 0 .007-.032c-1.027.009-1.21 0-1.222-.017-.007.023-.032.156-.032.156l-.54 2.418-.046.205-.09.67c0 .2.04.362.116.5.245.435.946.5 1.342.5.511 0 .99-.11 1.314-.31.562-.338.709-.864.84-1.332l.06-.24s.544-2.228.637-2.518c.003-.016.005-.025.01-.032zm1.85 1.797c-.131 0-.37.033-.586.14-.078.04-.152.087-.23.134l.07-.258-.038-.043c-.456.094-.558.106-.98.167l-.035.023c-.05.412-.093.722-.274 1.531-.07.298-.141.6-.213.897l.02.038c.431-.023.563-.023.938-.017l.03-.034c.048-.247.054-.305.16-.808.05-.238.153-.76.204-.947a.693.693 0 0 1 .275-.087c.21 0 .185.186.177.26a9.464 9.464 0 0 1-.165.88l-.052.226c-.037.167-.077.329-.113.494l.016.033c.425-.023.555-.023.919-.017l.043-.034c.065-.387.085-.49.201-1.054l.059-.26c.114-.506.171-.763.085-.972-.091-.235-.31-.292-.51-.292zm2.067.531c-.226.044-.37.074-.514.093-.142.023-.28.044-.5.074l-.017.016-.016.013c-.023.165-.039.308-.069.476a8.797 8.797 0 0 1-.129.655c-.05.217-.075.293-.103.369-.028.076-.058.15-.114.364l.013.02.01.018c.205-.01.339-.017.476-.018.138-.005.28 0 .5.001l.02-.016.02-.018c.032-.192.037-.244.056-.338.02-.1.053-.24.134-.612.039-.175.082-.35.121-.528l.127-.528-.006-.021-.009-.02zm.005-.716c-.206-.123-.566-.084-.81.086-.242.167-.27.404-.064.529.202.12.564.084.805-.088.242-.17.272-.405.07-.527zm1.244 2.852c.416 0 .843-.116 1.164-.461.247-.28.36-.697.4-.868.127-.569.027-.834-.098-.996-.19-.247-.525-.326-.873-.326-.209 0-.707.021-1.096.385-.28.263-.409.62-.487.961-.079.348-.169.975.4 1.208.174.077.427.098.59.098zm-.032-1.279c.095-.43.209-.792.498-.792.226 0 .243.269.142.701-.018.096-.1.452-.213.604-.078.112-.17.18-.272.18-.03 0-.211 0-.214-.272a1.877 1.877 0 0 1 .059-.42zm2.635 1.224.033-.033c.046-.248.054-.307.156-.809.05-.238.157-.76.206-.947.094-.044.185-.088.276-.088.21 0 .184.187.176.26a8.588 8.588 0 0 1-.165.882l-.05.225c-.037.167-.079.329-.115.494l.016.033c.427-.023.552-.023.918-.017l.044-.033c.064-.388.081-.491.201-1.055l.058-.26c.114-.506.172-.763.087-.972-.094-.235-.314-.292-.512-.292-.131 0-.372.032-.586.14-.077.04-.153.087-.228.134l.065-.258-.035-.043c-.456.094-.56.106-.982.167l-.032.023c-.051.412-.092.722-.274 1.531-.069.298-.14.6-.212.897l.019.038c.433-.023.562-.023.936-.017zm3.14.017.187-.922s.136-.578.144-.599c0 0 .043-.06.086-.084h.063c.593 0 1.264 0 1.789-.392.357-.269.602-.666.71-1.149.03-.118.05-.259.05-.4a.849.849 0 0 0-.142-.51c-.268-.38-.802-.387-1.417-.39l-.304.003c-.788.01-1.104.007-1.234-.01l-.032.163-.282 1.33L17.942 10c.689-.008.97-.008 1.09.005zm.523-2.358.299-1.32.01-.068.003-.052.12.012.634.056c.244.096.345.343.275.666a.967.967 0 0 1-.495.662c-.2.102-.444.11-.696.11h-.163l.013-.066zm1.869 1.142c-.08.343-.17.97.395 1.193.18.078.341.1.506.092.173-.01.333-.097.482-.224l-.04.156.026.034c.406-.018.532-.018.973-.014l.04-.031c.064-.384.125-.756.292-1.49.081-.351.163-.7.246-1.05l-.013-.038c-.455.085-.576.104-1.014.166l-.033.028c-.005.036-.01.07-.013.104a.627.627 0 0 0-.32-.266c-.194-.078-.65.022-1.043.385-.276.26-.409.614-.484.955zm.955.02c.097-.422.21-.78.5-.78.182 0 .279.171.26.464l-.053.237-.091.375a.917.917 0 0 1-.107.22c-.075.106-.252.173-.354.173-.03 0-.208 0-.214-.268a1.86 1.86 0 0 1 .06-.42zm4.988-1.396-.035-.04c-.45.092-.531.107-.945.164l-.03.03-.005.02-.001-.007c-.308.72-.3.565-.55 1.132l-.003-.07-.062-1.229-.04-.04c-.471.092-.482.107-.918.164l-.034.03c-.004.015-.004.031-.007.049l.003.006c.054.282.041.22.096.665.025.218.059.438.084.654.043.36.067.539.12 1.09-.294.492-.364.678-.647 1.11l.002.005-.2.32c-.022.033-.043.056-.072.066a.296.296 0 0 1-.13.019h-.11l-.165.554.563.01c.33-.002.539-.159.65-.37l.355-.615h-.006l.037-.043c.238-.52 2.05-3.674 2.05-3.674zm-5.943 7.275h-.24l.885-2.967h.293l.094-.306.009.34c-.011.21.151.397.58.366h.494l.17-.571h-.186c-.107 0-.156-.028-.15-.087l-.009-.345h-.917v.001c-.296.007-1.18.03-1.36.078a1.593 1.593 0 0 0-.445.223l.09-.306h-.858l-.178.607-.896 3.012h-.174l-.17.568h1.707l-.058.189h.842l.056-.19h.236l.185-.612zm-.7-2.364c-.138.039-.394.155-.394.155l.228-.758h.68l-.163.553s-.21.012-.352.05zm.012 1.083s-.214.027-.355.06c-.138.042-.398.177-.398.177l.234-.79h.685l-.166.553zm-.381 1.288h-.684l.198-.666h.682l-.196.666zM22 12.856h.985l-.142.465h-.997l-.15.508h.873l-.661.945a.273.273 0 0 1-.134.113.388.388 0 0 1-.178.052h-.242l-.166.557h.633c.33 0 .524-.152.668-.352l.453-.63.098.64a.3.3 0 0 0 .163.217c.063.032.129.088.221.096.1.004.171.008.219.008h.311l.187-.623h-.123c-.07 0-.192-.013-.212-.035-.02-.027-.02-.07-.032-.133l-.099-.64h-.404l.177-.215h.996l.153-.508h-.922l.144-.465h.92l.17-.574h-2.741l-.168.574zm-8.318 1.97.23-.776h.944l.173-.577h-.946l.145-.478h.924l.171-.559h-2.312l-.168.56h.525l-.14.477h-.527l-.174.587h.525l-.306 1.026c-.042.136.02.188.058.25.039.062.079.103.169.126.092.021.156.034.242.034h1.065l.19-.64-.472.066c-.091 0-.344-.011-.316-.097zm.108-3.715-.24.44a.51.51 0 0 1-.138.182c-.037.024-.11.033-.214.033h-.125l-.167.562h.415a.93.93 0 0 0 .425-.111c.08-.043.1-.019.16-.078l.14-.123h1.296l.172-.585h-.948l.165-.32h-.941zm1.913 3.726c-.022-.032-.007-.09.027-.208l.354-1.189h1.26c.183-.002.316-.005.402-.01a.816.816 0 0 0 .303-.104.57.57 0 0 0 .22-.206c.055-.076.143-.243.218-.5l.445-1.505-1.307.008s-.403.06-.58.127c-.179.074-.434.28-.434.28l.118-.412h-.808l-1.13 3.804a2.38 2.38 0 0 0-.073.32c-.002.069.086.137.143.19.068.051.168.043.264.051.1.008.244.013.442.013h.62l.191-.653-.555.053a.146.146 0 0 1-.12-.06zm.61-2.2h1.323l-.084.268c-.012.006-.04-.013-.175.003h-1.146l.082-.27zm.265-.897h1.334l-.096.322s-.629-.006-.73.013c-.443.078-.701.318-.701.318l.193-.653zm1.003 2.06a.143.143 0 0 1-.052.083c-.027.018-.07.024-.135.024h-.189l.011-.326h-.784l-.032 1.593c0 .114.01.18.093.234.083.067.338.075.682.075h.491l.178-.596-.428.024-.142.008c-.02-.008-.038-.016-.06-.037-.017-.018-.047-.007-.043-.122l.004-.408.448-.019c.243 0 .346-.08.435-.156.084-.073.111-.157.143-.27l.075-.361h-.616l-.079.254z" fill="#FEFEFE"/></svg>