<svg width="34" height="15" fill="none" xmlns="http://www.w3.org/2000/svg"><path fill-rule="evenodd" clip-rule="evenodd" d="M6.785 2.326c-.386.47-1.004.84-1.622.787-.077-.635.226-1.309.58-1.725C6.129.905 6.804.562 7.35.535c.065.661-.186 1.309-.566 1.791zm.56.912c-.544-.032-1.04.168-1.442.33-.258.104-.477.192-.643.192-.187 0-.414-.093-.67-.197-.335-.136-.718-.293-1.119-.285-.92.013-1.776.548-2.246 1.4-.965 1.706-.25 4.23.682 5.618.457.687 1.004 1.44 1.725 1.414.317-.012.545-.112.781-.214.272-.119.554-.242.995-.242.425 0 .695.12.955.235.246.11.483.214.834.208.746-.013 1.216-.687 1.673-1.374.493-.738.71-1.458.743-1.567l.004-.013-.018-.009c-.165-.077-1.425-.67-1.437-2.258-.012-1.333 1-2.008 1.159-2.114l.019-.014c-.644-.978-1.648-1.083-1.995-1.11zm5.167 8.386V1.322h3.765c1.943 0 3.301 1.374 3.301 3.383 0 2.01-1.383 3.397-3.352 3.397H14.07v3.522h-1.558zM14.07 2.67h1.796c1.351 0 2.123.74 2.123 2.042 0 1.302-.772 2.049-2.13 2.049H14.07V2.67zm10.65 7.719c-.411.806-1.318 1.315-2.297 1.315-1.447 0-2.458-.886-2.458-2.22 0-1.322.978-2.082 2.787-2.195l1.943-.119v-.568c0-.84-.534-1.295-1.486-1.295-.785 0-1.358.416-1.474 1.05h-1.403c.045-1.334 1.268-2.306 2.922-2.306 1.782 0 2.94.958 2.94 2.445v5.128h-1.441v-1.236h-.032zm-1.878.092c-.83 0-1.358-.41-1.358-1.037 0-.648.508-1.025 1.48-1.084l1.73-.113v.582c0 .965-.797 1.652-1.852 1.652zm8.133 1.546c-.624 1.805-1.338 2.4-2.857 2.4-.116 0-.502-.014-.592-.04V13.15c.097.013.335.026.457.026.689 0 1.075-.297 1.313-1.07l.141-.456-2.638-7.5h1.628l1.834 6.086h.032l1.834-6.087h1.583l-2.735 7.877z" fill="#fff"/></svg>