<svg width="16" height="19" fill="none" xmlns="http://www.w3.org/2000/svg"><path fill-rule="evenodd" clip-rule="evenodd" d="m4.772 17.8.298-1.932-.665-.016H1.23L3.436 1.594a.19.19 0 0 1 .062-.112.178.178 0 0 1 .117-.044h5.357c1.778 0 3.005.377 3.646 1.12.3.35.492.714.584 1.116.097.42.099.924.004 1.538l-.007.044v.394l.3.173c.253.137.454.293.609.472.257.299.423.678.493 1.127.073.463.049 1.013-.07 1.636-.137.717-.359 1.34-.658 1.851a3.78 3.78 0 0 1-1.042 1.164 4.19 4.19 0 0 1-1.404.645 6.883 6.883 0 0 1-1.754.206h-.417c-.298 0-.587.11-.815.306-.228.2-.378.473-.425.772l-.031.174-.528 3.406-.024.125c-.006.04-.017.059-.033.072a.087.087 0 0 1-.054.02H4.772z" fill="#28356A"/><path fill-rule="evenodd" clip-rule="evenodd" d="M13.784 5.302c-.016.104-.035.21-.055.32-.706 3.694-3.123 4.97-6.21 4.97H5.949a.767.767 0 0 0-.754.658L4.16 17.921c-.038.25.15.474.397.474h2.787c.33 0 .61-.244.663-.576l.027-.144.525-3.393.034-.186a.674.674 0 0 1 .662-.577h.417c2.7 0 4.814-1.116 5.432-4.348.258-1.35.125-2.477-.558-3.27a2.668 2.668 0 0 0-.763-.6z" fill="#298FC2"/><path fill-rule="evenodd" clip-rule="evenodd" d="M13.044 5.002a5.461 5.461 0 0 0-.687-.156 8.58 8.58 0 0 0-1.385-.103H6.774a.656.656 0 0 0-.29.067.68.68 0 0 0-.372.51l-.893 5.762-.026.168a.767.767 0 0 1 .755-.658h1.571c3.087 0 5.503-1.277 6.21-4.97.02-.11.039-.216.054-.32a3.717 3.717 0 0 0-.739-.3z" fill="#22284F"/><path fill-rule="evenodd" clip-rule="evenodd" d="M6.113 5.32a.678.678 0 0 1 .662-.576h4.198c.497 0 .962.033 1.385.103a5.466 5.466 0 0 1 .846.205c.208.07.402.154.58.25.211-1.365 0-2.295-.726-3.137C12.26 1.24 10.819.842 8.974.842H3.616a.77.77 0 0 0-.756.66L.629 15.905a.466.466 0 0 0 .454.542H4.39L6.113 5.32z" fill="#28356A"/></svg>