<svg width="35" height="15" fill="none" xmlns="http://www.w3.org/2000/svg"><path fill-rule="evenodd" clip-rule="evenodd" d="m18.716 2.058-2.336.509V.645l2.337-.5v1.913zm4.86 1.065c-.912 0-1.499.433-1.825.734l-.12-.584h-2.049V14.26l2.328-.5.009-2.666c.335.245.828.594 1.648.594 1.666 0 3.183-1.357 3.183-4.344-.009-2.732-1.545-4.22-3.174-4.22zm-.559 6.49c-.549 0-.875-.197-1.098-.442l-.01-3.495c.243-.273.578-.462 1.108-.462.848 0 1.434.961 1.434 2.195 0 1.263-.577 2.205-1.434 2.205zm11.07-2.175c0-2.412-1.155-4.315-3.361-4.315-2.216 0-3.556 1.903-3.556 4.296 0 2.836 1.582 4.268 3.854 4.268 1.108 0 1.945-.255 2.579-.613V9.19c-.634.32-1.36.518-2.281.518-.903 0-1.704-.32-1.806-1.432h4.552c0-.052.003-.17.007-.306v-.002c.005-.184.012-.4.012-.53zm-4.6-.895c0-1.065.643-1.508 1.23-1.508.567 0 1.172.443 1.172 1.508h-2.401zM16.38 3.283h2.336v8.243H16.38V3.283zm-2.653 0 .149.697c.549-1.018 1.638-.81 1.936-.697V5.45c-.289-.104-1.22-.236-1.769.49v5.587h-2.327V3.283h2.01zM9.22 1.238l-2.272.49-.01 7.547c0 1.394 1.034 2.421 2.412 2.421.763 0 1.322-.141 1.63-.31V9.472c-.299.122-1.77.555-1.77-.839V5.29h1.77V3.284H9.21l.01-2.045zm-5.502 3.93c-.494 0-.791.14-.791.508 0 .401.512.577 1.148.796 1.037.357 2.402.827 2.408 2.567 0 1.687-1.331 2.657-3.268 2.657-.8 0-1.676-.16-2.541-.537V8.917c.782.433 1.768.753 2.541.753.522 0 .894-.14.894-.574 0-.445-.556-.648-1.227-.893C1.861 7.83.573 7.36.573 5.79c0-1.668 1.256-2.666 3.146-2.666.773 0 1.536.122 2.309.433V5.77c-.708-.386-1.602-.603-2.31-.603z" fill="#fff"/></svg>