<svg width="33" height="11" fill="none" xmlns="http://www.w3.org/2000/svg"><path fill-rule="evenodd" clip-rule="evenodd" d="M8.544 10.346H5.758L3.668 2.26c-.1-.372-.31-.701-.62-.856A8.981 8.981 0 0 0 .495.547V.235h4.49c.619 0 1.084.468 1.161 1.011L7.229 7.08 10.015.235h2.709l-4.18 10.111zm5.729 0H11.64L13.808.236h2.632l-2.167 10.11zm5.572-7.31c.077-.544.542-.856 1.084-.856a4.843 4.843 0 0 1 2.554.467L23.948.47a6.579 6.579 0 0 0-2.4-.468c-2.554 0-4.412 1.4-4.412 3.344 0 1.48 1.316 2.256 2.245 2.723 1.006.467 1.393.778 1.316 1.244 0 .7-.775 1.011-1.548 1.011-.93 0-1.859-.233-2.71-.622l-.464 2.178c.93.388 1.935.545 2.864.545 2.864.076 4.644-1.323 4.644-3.423 0-2.645-3.638-2.8-3.638-3.966zm12.849 7.31L30.604.236H28.36c-.465 0-.93.31-1.084.777l-3.87 9.333h2.71l.54-1.477h3.329l.31 1.477h2.399zm-3.947-7.388.773 3.81h-2.167l1.394-3.81z" fill="#fff"/></svg>